<?xml version="1.0" encoding="UTF-8" standalone="no"?>
<!-- Created with Inkscape (http://www.inkscape.org/) -->

<svg
   xmlns:dc="http://purl.org/dc/elements/1.1/"
   xmlns:cc="http://creativecommons.org/ns#"
   xmlns:rdf="http://www.w3.org/1999/02/22-rdf-syntax-ns#"
   xmlns:svg="http://www.w3.org/2000/svg"
   xmlns="http://www.w3.org/2000/svg"
   xmlns:sodipodi="http://sodipodi.sourceforge.net/DTD/sodipodi-0.dtd"
   xmlns:inkscape="http://www.inkscape.org/namespaces/inkscape"
   width="86"
   height="86"
   id="svg2"
   version="1.1"
   inkscape:version="0.92.4 5da689c313, 2019-01-14"
   sodipodi:docname="ubu-xfce.svg"
   inkscape:export-filename="/home/mo/Dokumente/Pro1-ubu/apps/64x64/apps/ubu-xfce.png"
   inkscape:export-xdpi="71.440002"
   inkscape:export-ydpi="71.440002">
  <defs
     id="defs4">
    <linearGradient
       id="linearGradient3789-6">
      <stop
         style="stop-color:#1e9bff;stop-opacity:1;"
         offset="0"
         id="stop3791-0" />
      <stop
         style="stop-color:#00c8de;stop-opacity:1;"
         offset="1"
         id="stop3793-4" />
    </linearGradient>
    <linearGradient
       id="linearGradient3708">
      <stop
         style="stop-color:#658db6;stop-opacity:1"
         offset="0"
         id="stop3710" />
      <stop
         id="stop3716"
         offset="0.76777935"
         style="stop-color:#527fab;stop-opacity:1;" />
      <stop
         style="stop-color:#4071a0;stop-opacity:1"
         offset="1"
         id="stop3712" />
    </linearGradient>
    <linearGradient
       id="linearGradient3750">
      <stop
         id="stop3752"
         offset="0"
         style="stop-color:#d0e2f1;stop-opacity:1" />
      <stop
         style="stop-color:#cadef0;stop-opacity:1"
         offset="0.85580856"
         id="stop3756" />
      <stop
         id="stop3754"
         offset="1"
         style="stop-color:#95bee3;stop-opacity:1" />
    </linearGradient>
    <linearGradient
       id="linearGradient3698">
      <stop
         style="stop-color:#96d0e1;stop-opacity:1"
         offset="0"
         id="stop3700" />
      <stop
         id="stop3706"
         offset="0.67819428"
         style="stop-color:#89b7e1;stop-opacity:1" />
      <stop
         style="stop-color:#699dd3;stop-opacity:1"
         offset="1"
         id="stop3702" />
    </linearGradient>
    <linearGradient
       id="linearGradient3803">
      <stop
         style="stop-color:#d7def0;stop-opacity:1;"
         offset="0"
         id="stop3805" />
      <stop
         id="stop3811"
         offset="0.5"
         style="stop-color:#ffffff;stop-opacity:1" />
      <stop
         style="stop-color:#d5def0;stop-opacity:1"
         offset="1"
         id="stop3807" />
    </linearGradient>
  </defs>
  <sodipodi:namedview
     id="base"
     pagecolor="#ffffff"
     bordercolor="#666666"
     borderopacity="1.0"
     inkscape:pageopacity="0.0"
     inkscape:pageshadow="2"
     inkscape:zoom="4"
     inkscape:cx="45.53236"
     inkscape:cy="-26.492487"
     inkscape:document-units="px"
     inkscape:current-layer="layer2"
     showgrid="true"
     inkscape:window-width="2880"
     inkscape:window-height="1506"
     inkscape:window-x="0"
     inkscape:window-y="0"
     inkscape:window-maximized="1"
     inkscape:snap-bbox="true"
     inkscape:snap-global="true"
     showguides="true"
     inkscape:guide-bbox="true">
    <inkscape:grid
       type="xygrid"
       id="grid2985"
       empspacing="5"
       visible="true"
       enabled="true"
       snapvisiblegridlinesonly="true"
       spacingx="0.1"
       spacingy="0.1" />
    <sodipodi:guide
       position="43,85.7"
       orientation="0,1"
       id="guide4828"
       inkscape:locked="false" />
    <inkscape:grid
       type="xygrid"
       id="grid4830" />
    <sodipodi:guide
       position="0.3,42.8"
       orientation="1,0"
       id="guide4832"
       inkscape:locked="false" />
    <sodipodi:guide
       position="43.4,0.3"
       orientation="0,1"
       id="guide4834"
       inkscape:locked="false" />
    <sodipodi:guide
       position="85.7,42.2"
       orientation="1,0"
       id="guide4836"
       inkscape:locked="false" />
  </sodipodi:namedview>
  <metadata
     id="metadata7">
    <rdf:RDF>
      <cc:Work
         rdf:about="">
        <dc:format>image/svg+xml</dc:format>
        <dc:type
           rdf:resource="http://purl.org/dc/dcmitype/StillImage" />
        <dc:title />
      </cc:Work>
    </rdf:RDF>
  </metadata>
  <g
     inkscape:groupmode="layer"
     id="layer2"
     inkscape:label="Ebene"
     style="display:inline"
     transform="translate(0,-4)">
    <circle
       style="opacity:1;fill:#ffffff;fill-opacity:1;stroke:none;stroke-width:15.7414465;stroke-linecap:butt;stroke-linejoin:miter;stroke-miterlimit:4;stroke-dasharray:none;stroke-opacity:1;paint-order:stroke markers fill"
       id="path4942"
       cx="43.000778"
       cy="46.999531"
       r="42.699223" />
    <g
       id="g4936">
      <path
         style="fill:#287fb8;stroke-width:0.18359037"
         d="M 39.351585,89.660187 C 31.362457,88.692385 25.177103,86.520828 19.321703,82.628091 17.129223,81.170507 14.2915,78.775665 14.2915,78.382946 c 0,-0.21203 0.582607,-0.312302 2.84565,-0.489761 1.565108,-0.122727 4.174616,-0.391421 5.798906,-0.597093 1.62429,-0.205674 3.26285,-0.373952 3.641249,-0.373952 0.472884,0 1.816881,0.510783 4.298564,1.63366 5.715285,2.585971 10.216079,4.35527 12.219702,4.80366 1.267701,0.283699 1.765497,0.01773 2.226606,-1.189666 0.664003,-1.738668 -0.127413,-3.453011 -3.075629,-6.662343 -2.068027,-2.251189 -2.480812,-2.881036 -2.149656,-3.280053 0.394729,-0.475621 0.936177,-0.354291 6.598308,1.478587 3.717218,1.203294 4.905138,1.46066 5.571889,1.20716 0.726906,-0.276369 0.964882,-0.935185 0.680574,-1.88412 -0.435024,-1.451979 -1.498283,-2.901229 -4.911693,-6.694755 -1.238038,-1.375907 -1.744979,-2.086351 -1.900291,-2.663131 -0.391407,-1.453573 0.06814,-2.773902 1.255286,-3.6065 0.273666,-0.191935 2.728195,-1.416536 5.454512,-2.721335 11.235151,-5.377073 16.521274,-9.197718 17.543303,-12.679748 0.295547,-1.006919 0.01873,-2.461947 -0.778536,-4.09231 -0.756081,-1.546126 -2.872196,-3.645395 -4.84276,-4.804206 -3.834777,-2.255079 -10.312992,-4.173824 -18.164079,-5.379916 -1.71657,-0.2637 -3.306922,-0.556849 -3.534115,-0.651443 -0.38389,-0.159833 -0.413089,-0.285767 -0.413232,-1.782337 -5.51e-4,-5.067656 -0.923159,-9.337545 -2.362801,-10.934379 -1.984861,-2.20159 -5.369859,-1.732171 -6.712047,0.930798 -0.862633,1.711505 -0.64045,5.650343 0.55883,9.906907 0.556529,1.975277 0.506975,2.297455 -0.3408,2.215753 -0.578043,-0.05571 -0.649843,-0.162154 -2.15845,-3.199944 -0.858285,-1.728275 -1.80259,-3.544612 -2.098455,-4.036302 -0.662005,-1.100168 -2.032521,-2.586664 -2.705896,-2.934879 -1.669587,-0.863378 -4.079384,0.589309 -4.855933,2.927282 -0.460067,1.385135 -0.384884,3.641857 0.205877,6.179638 0.269909,1.159469 0.534458,2.491745 0.587886,2.960614 0.183625,1.611485 -1.049993,4.297405 -2.891159,6.294836 -0.649508,0.704633 -0.922453,0.854001 -2.014365,1.102351 -2.404109,0.546802 -6.201208,0.3049 -12.9374759,-0.824211 C 3.115309,38.237423 1.5503706,37.909229 1.4536295,37.812488 1.2125312,37.57139 2.2490688,33.866602 3.3014176,31.208137 8.1427325,18.977899 18.469023,9.6500071 31.234582,5.9756944 41.504928,3.0195795 52.375708,4.0024026 61.970068,8.7544799 73.19688,14.31511 81.389519,24.420399 84.436732,36.4662 c 0.998332,3.946458 1.258635,6.096009 1.264123,10.438914 0.0061,4.749545 -0.470602,8.294336 -1.637329,12.177811 -3.497788,11.642461 -11.564851,21.154535 -22.382157,26.391357 -6.022443,2.915556 -11.067366,4.105598 -17.831819,4.206331 -2.12047,0.03158 -4.144553,0.02239 -4.497965,-0.02043 z M 64.944537,33.668073 c 1.253632,-0.481064 7.229201,-11.720115 7.050915,-13.261595 -0.07965,-0.688632 -0.647963,-0.711102 -1.54527,-0.0611 -1.075182,0.778859 -4.430898,5.846972 -5.779294,8.728426 -0.605705,1.294362 -1.079646,2.864515 -1.083195,3.588598 -0.0039,0.790641 0.651447,1.276355 1.356844,1.005669 z M 61.47426,31.509237 c 0.723554,-1.104284 1.743655,-7.297592 1.783968,-10.830935 0.0281,-2.462919 -0.136028,-3.239443 -0.684688,-3.239443 -0.718347,0 -1.238917,1.601976 -2.05811,6.333504 -0.716799,4.140132 -0.885917,7.00714 -0.457572,7.757057 0.315469,0.552298 1.048138,0.541858 1.416402,-0.02019 z"
         id="path4938"
         inkscape:connector-curvature="0" />
    </g>
    <circle
       style="display:inline;opacity:1;fill:#f36525;fill-opacity:1;stroke:none;stroke-width:0;stroke-linecap:butt;stroke-linejoin:miter;stroke-miterlimit:4;stroke-dasharray:none;stroke-opacity:1;paint-order:stroke markers fill"
       id="path4796"
       cx="3.4792433"
       cy="74.451797"
       r="17.268011"
       transform="matrix(-0.9597301,0.28092371,0.28092371,0.9597301,0,0)" />
    <g
       style="display:inline"
       id="g4852"
       transform="matrix(0.07913441,-0.04568827,0.04568827,0.07913441,-19.531107,88.55984)">
      <path
         style="color:#000000;font-style:normal;font-variant:normal;font-weight:normal;font-stretch:normal;font-size:medium;line-height:normal;font-family:sans-serif;font-variant-ligatures:normal;font-variant-position:normal;font-variant-caps:normal;font-variant-numeric:normal;font-variant-alternates:normal;font-feature-settings:normal;text-indent:0;text-align:start;text-decoration:none;text-decoration-line:none;text-decoration-style:solid;text-decoration-color:#000000;letter-spacing:normal;word-spacing:normal;text-transform:none;writing-mode:lr-tb;direction:ltr;text-orientation:mixed;dominant-baseline:auto;baseline-shift:baseline;text-anchor:start;white-space:normal;shape-padding:0;clip-rule:nonzero;display:inline;overflow:visible;visibility:visible;opacity:1;isolation:auto;mix-blend-mode:normal;color-interpolation:sRGB;color-interpolation-filters:linearRGB;solid-color:#000000;solid-opacity:1;vector-effect:none;fill:#ffffff;fill-opacity:1;fill-rule:nonzero;stroke:none;stroke-width:35.87366486;stroke-linecap:butt;stroke-linejoin:miter;stroke-miterlimit:4;stroke-dasharray:none;stroke-dashoffset:0;stroke-opacity:1;color-rendering:auto;image-rendering:auto;shape-rendering:auto;text-rendering:auto;enable-background:accumulate"
         d="m 189.07617,79.470703 c -17.48658,0 -34.04396,4.146302 -48.74023,11.503906 l 17.92773,31.052731 c 9.36092,-4.28292 19.78594,-6.68359 30.8125,-6.68359 38.5876,0 69.92352,29.18934 73.31836,66.84375 h 35.97266 c -1.72056,-27.79737 -13.91114,-52.85977 -32.66016,-71.26953 a 35.402061,35.402061 0 0 1 -30.13672,-2.4668 35.402061,35.402061 0 0 1 -17.2207,-24.98242 c -9.32606,-2.601215 -19.14279,-3.998047 -29.27344,-3.998047 z M 128.5918,97.798828 C 106.44252,112.56379 89.918206,135.16537 83.058594,161.57422 a 35.402061,35.402061 0 0 1 13.03125,27.40625 35.402061,35.402061 0 0 1 -13.029297,27.41015 c 6.859847,26.40704 23.383703,49.00588 45.531253,63.76954 l 17.89843,-31.00196 c -18.8213,-13.29512 -31.04882,-35.21304 -31.04882,-60.17773 0,-24.9647 12.22752,-46.884 31.04882,-60.17969 z m 133.80273,97.974612 c -3.39484,37.65421 -34.73076,66.84179 -73.31836,66.84179 -11.02603,0 -21.44997,-2.40126 -30.81055,-6.68359 l -17.92968,31.05469 c 14.69588,7.35689 31.25393,11.50195 48.74023,11.50195 10.13149,0 19.94864,-1.39846 29.27539,-4 a 35.402061,35.402061 0 0 1 17.21875,-24.97656 35.402061,35.402061 0 0 1 30.13086,-2.46289 c 18.75272,-18.40991 30.94536,-43.4748 32.66602,-71.27539 z"
         transform="translate(250.39454,-137.80566)"
         id="circle4823"
         inkscape:connector-curvature="0" />
      <circle
         style="fill:#ffffff;stroke-width:4.19575024"
         cx="311.08154"
         cy="51.175346"
         r="25.205759"
         id="circle4829" />
      <circle
         id="circle4882"
         r="25.205759"
         cy="-406.18121"
         cx="-303.80652"
         style="fill:#ffffff;stroke-width:4.19575024"
         transform="rotate(120)" />
      <circle
         id="circle4874"
         r="25.205759"
         cy="355.00577"
         cx="-392.44489"
         style="fill:#ffffff;stroke-width:4.19575024"
         transform="rotate(-120)" />
    </g>
  </g>
</svg>
