<?xml version="1.0" encoding="UTF-8" standalone="no"?>
<!-- Created with Inkscape (http://www.inkscape.org/) -->

<svg
   xmlns:dc="http://purl.org/dc/elements/1.1/"
   xmlns:cc="http://creativecommons.org/ns#"
   xmlns:rdf="http://www.w3.org/1999/02/22-rdf-syntax-ns#"
   xmlns:svg="http://www.w3.org/2000/svg"
   xmlns="http://www.w3.org/2000/svg"
   xmlns:sodipodi="http://sodipodi.sourceforge.net/DTD/sodipodi-0.dtd"
   xmlns:inkscape="http://www.inkscape.org/namespaces/inkscape"
   width="86"
   height="86"
   id="svg2"
   version="1.1"
   inkscape:version="0.92.4 5da689c313, 2019-01-14"
   sodipodi:docname="ubu-close.svg"
   inkscape:export-filename="/home/mo/Dokumente/Pro1-ubu/apps/172x172/apps/ubu-close.png"
   inkscape:export-xdpi="192"
   inkscape:export-ydpi="192">
  <defs
     id="defs4">
    <linearGradient
       id="linearGradient3789-6">
      <stop
         style="stop-color:#1e9bff;stop-opacity:1;"
         offset="0"
         id="stop3791-0" />
      <stop
         style="stop-color:#00c8de;stop-opacity:1;"
         offset="1"
         id="stop3793-4" />
    </linearGradient>
    <linearGradient
       id="linearGradient3708">
      <stop
         style="stop-color:#658db6;stop-opacity:1"
         offset="0"
         id="stop3710" />
      <stop
         id="stop3716"
         offset="0.76777935"
         style="stop-color:#527fab;stop-opacity:1;" />
      <stop
         style="stop-color:#4071a0;stop-opacity:1"
         offset="1"
         id="stop3712" />
    </linearGradient>
    <linearGradient
       id="linearGradient3750">
      <stop
         id="stop3752"
         offset="0"
         style="stop-color:#d0e2f1;stop-opacity:1" />
      <stop
         style="stop-color:#cadef0;stop-opacity:1"
         offset="0.85580856"
         id="stop3756" />
      <stop
         id="stop3754"
         offset="1"
         style="stop-color:#95bee3;stop-opacity:1" />
    </linearGradient>
    <linearGradient
       id="linearGradient3698">
      <stop
         style="stop-color:#96d0e1;stop-opacity:1"
         offset="0"
         id="stop3700" />
      <stop
         id="stop3706"
         offset="0.67819428"
         style="stop-color:#89b7e1;stop-opacity:1" />
      <stop
         style="stop-color:#699dd3;stop-opacity:1"
         offset="1"
         id="stop3702" />
    </linearGradient>
    <linearGradient
       id="linearGradient3803">
      <stop
         style="stop-color:#d7def0;stop-opacity:1;"
         offset="0"
         id="stop3805" />
      <stop
         id="stop3811"
         offset="0.5"
         style="stop-color:#ffffff;stop-opacity:1" />
      <stop
         style="stop-color:#d5def0;stop-opacity:1"
         offset="1"
         id="stop3807" />
    </linearGradient>
  </defs>
  <sodipodi:namedview
     id="base"
     pagecolor="#ffffff"
     bordercolor="#666666"
     borderopacity="1.0"
     inkscape:pageopacity="0.0"
     inkscape:pageshadow="2"
     inkscape:zoom="13.828656"
     inkscape:cx="36.450011"
     inkscape:cy="33.84246"
     inkscape:document-units="px"
     inkscape:current-layer="layer2"
     showgrid="true"
     inkscape:window-width="2880"
     inkscape:window-height="1506"
     inkscape:window-x="0"
     inkscape:window-y="0"
     inkscape:window-maximized="1"
     inkscape:snap-bbox="true"
     inkscape:snap-global="true"
     showguides="true"
     inkscape:guide-bbox="true">
    <inkscape:grid
       type="xygrid"
       id="grid2985"
       empspacing="5"
       visible="true"
       enabled="true"
       snapvisiblegridlinesonly="true"
       spacingx="0.1"
       spacingy="0.1" />
    <sodipodi:guide
       position="43,85.7"
       orientation="0,1"
       id="guide4828"
       inkscape:locked="false" />
    <inkscape:grid
       type="xygrid"
       id="grid4830" />
    <sodipodi:guide
       position="0.3,42.8"
       orientation="1,0"
       id="guide4832"
       inkscape:locked="false" />
    <sodipodi:guide
       position="43.4,0.3"
       orientation="0,1"
       id="guide4834"
       inkscape:locked="false" />
    <sodipodi:guide
       position="85.7,42.2"
       orientation="1,0"
       id="guide4836"
       inkscape:locked="false" />
  </sodipodi:namedview>
  <metadata
     id="metadata7">
    <rdf:RDF>
      <cc:Work
         rdf:about="">
        <dc:format>image/svg+xml</dc:format>
        <dc:type
           rdf:resource="http://purl.org/dc/dcmitype/StillImage" />
        <dc:title />
      </cc:Work>
    </rdf:RDF>
  </metadata>
  <g
     inkscape:groupmode="layer"
     id="layer2"
     inkscape:label="Ebene"
     style="display:inline"
     transform="translate(0,-4)">
    <circle
       style="opacity:1;fill:#ffffff;fill-opacity:1;stroke:none;stroke-width:15.7414465;stroke-linecap:butt;stroke-linejoin:miter;stroke-miterlimit:4;stroke-dasharray:none;stroke-opacity:1;paint-order:stroke markers fill"
       id="path4942"
       cx="43.000778"
       cy="46.999531"
       r="42.699223" />
    <g
       id="icon-m-clear_2_"
       transform="matrix(1.3341686,0,0,1.3341686,0.2948277,4.3132108)"
       style="fill:#000000">
      <rect
         height="64"
         width="64"
         style="opacity:0;fill:#000000"
         id="icon-m-clear_3_"
         x="0"
         y="0" />
      <g
         id="g4998"
         style="fill:#000000">
        <circle
           id="circle4992"
           r="24"
           cy="32"
           cx="32"
           style="opacity:0.2;fill:#000000" />
        <path
           id="path4994"
           d="m 41.899,42.9 c -0.256,0 -0.512,-0.098 -0.707,-0.293 l -6.364,-6.364 c -2.339,-2.339 -2.339,-6.146 0,-8.485 l 6.364,-6.364 c 0.391,-0.391 1.023,-0.391 1.414,0 0.391,0.391 0.391,1.023 0,1.414 l -6.364,6.364 c -1.56,1.56 -1.56,4.097 0,5.657 l 6.364,6.364 c 0.391,0.391 0.391,1.023 0,1.414 -0.195,0.196 -0.451,0.293 -0.707,0.293 z"
           style="fill:#ffffff"
           inkscape:connector-curvature="0" />
        <path
           id="path4996"
           d="m 22.101,42.9 c -0.256,0 -0.512,-0.098 -0.707,-0.293 -0.391,-0.391 -0.391,-1.023 0,-1.414 l 6.364,-6.364 c 0.751,-0.752 1.166,-1.756 1.166,-2.828 0,-1.072 -0.414,-2.077 -1.166,-2.829 l -6.363,-6.363 c -0.391,-0.391 -0.391,-1.023 0,-1.414 0.391,-0.391 1.023,-0.391 1.414,0 l 6.363,6.363 c 1.129,1.129 1.751,2.636 1.751,4.243 0,1.607 -0.622,3.113 -1.751,4.242 l -6.364,6.364 C 22.612,42.803 22.356,42.9 22.101,42.9 Z"
           style="fill:#ffffff"
           inkscape:connector-curvature="0" />
      </g>
    </g>
    <circle
       style="display:inline;opacity:1;fill:#f36525;fill-opacity:1;stroke:none;stroke-width:0;stroke-linecap:butt;stroke-linejoin:miter;stroke-miterlimit:4;stroke-dasharray:none;stroke-opacity:1;paint-order:stroke markers fill"
       id="path4796"
       cx="3.4792433"
       cy="74.451797"
       r="17.268011"
       transform="matrix(-0.9597301,0.28092371,0.28092371,0.9597301,0,0)" />
    <g
       style="display:inline"
       id="g4852"
       transform="matrix(0.07913441,-0.04568827,0.04568827,0.07913441,-19.531107,88.55984)">
      <path
         style="color:#000000;font-style:normal;font-variant:normal;font-weight:normal;font-stretch:normal;font-size:medium;line-height:normal;font-family:sans-serif;font-variant-ligatures:normal;font-variant-position:normal;font-variant-caps:normal;font-variant-numeric:normal;font-variant-alternates:normal;font-feature-settings:normal;text-indent:0;text-align:start;text-decoration:none;text-decoration-line:none;text-decoration-style:solid;text-decoration-color:#000000;letter-spacing:normal;word-spacing:normal;text-transform:none;writing-mode:lr-tb;direction:ltr;text-orientation:mixed;dominant-baseline:auto;baseline-shift:baseline;text-anchor:start;white-space:normal;shape-padding:0;clip-rule:nonzero;display:inline;overflow:visible;visibility:visible;opacity:1;isolation:auto;mix-blend-mode:normal;color-interpolation:sRGB;color-interpolation-filters:linearRGB;solid-color:#000000;solid-opacity:1;vector-effect:none;fill:#ffffff;fill-opacity:1;fill-rule:nonzero;stroke:none;stroke-width:35.87366486;stroke-linecap:butt;stroke-linejoin:miter;stroke-miterlimit:4;stroke-dasharray:none;stroke-dashoffset:0;stroke-opacity:1;color-rendering:auto;image-rendering:auto;shape-rendering:auto;text-rendering:auto;enable-background:accumulate"
         d="m 189.07617,79.470703 c -17.48658,0 -34.04396,4.146302 -48.74023,11.503906 l 17.92773,31.052731 c 9.36092,-4.28292 19.78594,-6.68359 30.8125,-6.68359 38.5876,0 69.92352,29.18934 73.31836,66.84375 h 35.97266 c -1.72056,-27.79737 -13.91114,-52.85977 -32.66016,-71.26953 a 35.402061,35.402061 0 0 1 -30.13672,-2.4668 35.402061,35.402061 0 0 1 -17.2207,-24.98242 c -9.32606,-2.601215 -19.14279,-3.998047 -29.27344,-3.998047 z M 128.5918,97.798828 C 106.44252,112.56379 89.918206,135.16537 83.058594,161.57422 a 35.402061,35.402061 0 0 1 13.03125,27.40625 35.402061,35.402061 0 0 1 -13.029297,27.41015 c 6.859847,26.40704 23.383703,49.00588 45.531253,63.76954 l 17.89843,-31.00196 c -18.8213,-13.29512 -31.04882,-35.21304 -31.04882,-60.17773 0,-24.9647 12.22752,-46.884 31.04882,-60.17969 z m 133.80273,97.974612 c -3.39484,37.65421 -34.73076,66.84179 -73.31836,66.84179 -11.02603,0 -21.44997,-2.40126 -30.81055,-6.68359 l -17.92968,31.05469 c 14.69588,7.35689 31.25393,11.50195 48.74023,11.50195 10.13149,0 19.94864,-1.39846 29.27539,-4 a 35.402061,35.402061 0 0 1 17.21875,-24.97656 35.402061,35.402061 0 0 1 30.13086,-2.46289 c 18.75272,-18.40991 30.94536,-43.4748 32.66602,-71.27539 z"
         transform="translate(250.39454,-137.80566)"
         id="circle4823"
         inkscape:connector-curvature="0" />
      <circle
         style="fill:#ffffff;stroke-width:4.19575024"
         cx="311.08154"
         cy="51.175346"
         r="25.205759"
         id="circle4829" />
      <circle
         id="circle4882"
         r="25.205759"
         cy="-406.18121"
         cx="-303.80652"
         style="fill:#ffffff;stroke-width:4.19575024"
         transform="rotate(120)" />
      <circle
         id="circle4874"
         r="25.205759"
         cy="355.00577"
         cx="-392.44489"
         style="fill:#ffffff;stroke-width:4.19575024"
         transform="rotate(-120)" />
    </g>
  </g>
</svg>
