<?xml version="1.0" encoding="UTF-8" standalone="no"?>
<!-- Created with Inkscape (http://www.inkscape.org/) -->

<svg
   xmlns:dc="http://purl.org/dc/elements/1.1/"
   xmlns:cc="http://creativecommons.org/ns#"
   xmlns:rdf="http://www.w3.org/1999/02/22-rdf-syntax-ns#"
   xmlns:svg="http://www.w3.org/2000/svg"
   xmlns="http://www.w3.org/2000/svg"
   xmlns:xlink="http://www.w3.org/1999/xlink"
   xmlns:sodipodi="http://sodipodi.sourceforge.net/DTD/sodipodi-0.dtd"
   xmlns:inkscape="http://www.inkscape.org/namespaces/inkscape"
   width="86"
   height="86"
   id="svg2"
   version="1.1"
   inkscape:version="0.92.4 5da689c313, 2019-01-14"
   sodipodi:docname="ubu-chromium.svg"
   inkscape:export-filename="/home/mo/Dokumente/Pro1-ubu/apps/64x64/apps/ubu-chromium.png"
   inkscape:export-xdpi="71.441864"
   inkscape:export-ydpi="71.441864">
  <defs
     id="defs4">
    <linearGradient
       id="linearGradient3789-6">
      <stop
         style="stop-color:#1e9bff;stop-opacity:1;"
         offset="0"
         id="stop3791-0" />
      <stop
         style="stop-color:#00c8de;stop-opacity:1;"
         offset="1"
         id="stop3793-4" />
    </linearGradient>
    <linearGradient
       id="linearGradient3708">
      <stop
         style="stop-color:#658db6;stop-opacity:1"
         offset="0"
         id="stop3710" />
      <stop
         id="stop3716"
         offset="0.76777935"
         style="stop-color:#527fab;stop-opacity:1;" />
      <stop
         style="stop-color:#4071a0;stop-opacity:1"
         offset="1"
         id="stop3712" />
    </linearGradient>
    <radialGradient
       inkscape:collect="always"
       xlink:href="#linearGradient3750"
       id="radialGradient3748"
       cx="-94.87291"
       cy="165.27281"
       fx="-94.87291"
       fy="165.27281"
       r="60.481358"
       gradientTransform="matrix(0.30881929,0.64745637,-0.81746753,0.39200908,208.44795,41.7449)"
       gradientUnits="userSpaceOnUse" />
    <linearGradient
       id="linearGradient3750">
      <stop
         id="stop3752"
         offset="0"
         style="stop-color:#d0e2f1;stop-opacity:1" />
      <stop
         style="stop-color:#cadef0;stop-opacity:1"
         offset="0.85580856"
         id="stop3756" />
      <stop
         id="stop3754"
         offset="1"
         style="stop-color:#95bee3;stop-opacity:1" />
    </linearGradient>
    <linearGradient
       id="linearGradient3698">
      <stop
         style="stop-color:#96d0e1;stop-opacity:1"
         offset="0"
         id="stop3700" />
      <stop
         id="stop3706"
         offset="0.67819428"
         style="stop-color:#89b7e1;stop-opacity:1" />
      <stop
         style="stop-color:#699dd3;stop-opacity:1"
         offset="1"
         id="stop3702" />
    </linearGradient>
    <linearGradient
       id="linearGradient3803">
      <stop
         style="stop-color:#d7def0;stop-opacity:1;"
         offset="0"
         id="stop3805" />
      <stop
         id="stop3811"
         offset="0.5"
         style="stop-color:#ffffff;stop-opacity:1" />
      <stop
         style="stop-color:#d5def0;stop-opacity:1"
         offset="1"
         id="stop3807" />
    </linearGradient>
  </defs>
  <sodipodi:namedview
     id="base"
     pagecolor="#ffffff"
     bordercolor="#666666"
     borderopacity="1.0"
     inkscape:pageopacity="0.0"
     inkscape:pageshadow="2"
     inkscape:zoom="7.9802632"
     inkscape:cx="41.043547"
     inkscape:cy="60.0572"
     inkscape:document-units="px"
     inkscape:current-layer="layer2"
     showgrid="true"
     inkscape:window-width="2880"
     inkscape:window-height="1506"
     inkscape:window-x="0"
     inkscape:window-y="0"
     inkscape:window-maximized="1"
     inkscape:snap-bbox="true"
     inkscape:snap-global="true"
     showguides="true"
     inkscape:guide-bbox="true">
    <inkscape:grid
       type="xygrid"
       id="grid2985"
       empspacing="5"
       visible="true"
       enabled="true"
       snapvisiblegridlinesonly="true"
       spacingx="0.1"
       spacingy="0.1" />
    <inkscape:grid
       type="xygrid"
       id="grid4830" />
    <sodipodi:guide
       position="0.3,42.8"
       orientation="1,0"
       id="guide4832"
       inkscape:locked="false" />
    <sodipodi:guide
       position="43.4,0.3"
       orientation="0,1"
       id="guide4834"
       inkscape:locked="false" />
    <sodipodi:guide
       position="85.7,42.2"
       orientation="1,0"
       id="guide4836"
       inkscape:locked="false" />
    <sodipodi:guide
       position="41.9,85.7"
       orientation="0,1"
       id="guide8532"
       inkscape:locked="false" />
  </sodipodi:namedview>
  <metadata
     id="metadata7">
    <rdf:RDF>
      <cc:Work
         rdf:about="">
        <dc:format>image/svg+xml</dc:format>
        <dc:type
           rdf:resource="http://purl.org/dc/dcmitype/StillImage" />
        <dc:title />
      </cc:Work>
    </rdf:RDF>
  </metadata>
  <g
     inkscape:groupmode="layer"
     id="layer2"
     inkscape:label="Ebene"
     style="display:inline"
     transform="translate(0,-4)">
    <g
       id="g8510"
       transform="translate(-62,10)">
      <circle
         style="display:inline;opacity:1;fill:#ffffff;fill-opacity:1;stroke:none;stroke-width:15.7414465;stroke-linecap:butt;stroke-linejoin:miter;stroke-miterlimit:4;stroke-dasharray:none;stroke-opacity:1;paint-order:stroke markers fill"
         id="path4942"
         cx="105.00078"
         cy="36.999531"
         r="42.699223" />
      <g
         id="g8530"
         transform="matrix(0.58858956,0,0,0.58834739,-25.715003,66.069989)">
        <path
           inkscape:connector-curvature="0"
           id="path8512"
           d="m 218.24496,23.042946 c 1.10271,-3.526103 3.83383,-6.906608 5.68274,-10.295019 9.25455,-16.349491 19.26146,-32.295556 28.2883,-48.759241 6.28541,-13.713902 1.68565,-31.332928 -10.74178,-40.008003 5.3259,-1.163593 13.88186,-0.167627 20.37051,-0.517335 9.1481,0.04582 18.30222,-0.103565 27.44631,0.09828 9.89337,23.41364 5.70546,51.792919 -10.05823,71.663927 -14.22974,18.466271 -37.71627,29.233652 -60.98785,27.817394 z m -7.29614,-0.810433 c -27.31033,-3.814228 -51.0626,-24.870431 -58.53494,-51.360902 -5.82822,-19.786744 -2.73251,-42.193787 8.69469,-59.383805 11.42503,19.097477 22.36874,38.578585 33.76812,57.733963 6.4801,9.624589 18.17848,15.161293 29.6629,14.250781 2.94689,0.792494 10.98286,-3.876995 10.56532,-1.559064 -7.88794,13.451945 -15.70476,26.948719 -23.68882,40.336059 l -0.46731,-0.01703 z m 8.49844,-45.035359 C 205.61319,-23.857489 194.10659,-37.171953 195.47318,-51.095024 195.89365,-65.424838 209.74059,-77.502682 224,-76 c 14.12603,0.576814 26.0822,14.161959 24.68228,28.307313 -0.47555,14.673771 -14.67806,26.676894 -29.23502,24.889841 z m -30.67945,-29.946228 c -7.80566,-13.796464 -16.06262,-27.347784 -23.75102,-41.187164 15.62801,-20.856342 43.40506,-31.528632 68.99922,-27.029102 22.25896,3.62111 42.29226,18.28933 52.57254,38.364653 -12.98259,0.633609 -26.49019,0.121939 -39.67382,0.298946 -9.6153,0.155415 -19.29932,-0.259746 -28.87597,0.247107 -14.67772,1.421835 -27.20962,14.126429 -28.68142,28.762627 l -0.33211,0.553099 -0.25743,-0.01017 z"
           style="fill:#cd4d4d;stroke-width:0.0578125" />
        <path
           sodipodi:nodetypes="ccccc"
           style="fill:#4a83c2;fill-opacity:1;stroke-width:0.0578125"
           d="M 219.44726,-22.802846 C 205.61319,-23.857489 194.10659,-37.171953 195.47318,-51.095024 195.89365,-65.424838 209.74059,-77.502682 224,-76 c 14.12603,0.576814 26.0822,14.161959 24.68228,28.307313 -0.47555,14.673771 -14.67806,26.676894 -29.23502,24.889841 z"
           id="path8517"
           inkscape:connector-curvature="0" />
        <path
           sodipodi:nodetypes="cccccccccc"
           inkscape:connector-curvature="0"
           id="path8519"
           d="m 188.76781,-52.749074 c -7.80566,-13.796464 -16.06262,-27.347784 -23.75102,-41.187164 15.62801,-20.856342 43.40506,-31.528632 68.99922,-27.029102 22.25896,3.62111 42.29226,18.28933 52.57254,38.364653 -12.98259,0.633609 -26.49019,0.121939 -39.67382,0.298946 -9.6153,0.155415 -19.29932,-0.259746 -28.87597,0.247107 -14.67772,1.421835 -27.20962,14.126429 -28.68142,28.762627 l -0.33211,0.553099 -0.25743,-0.01017 z"
           style="fill:#4071a0;fill-opacity:1;stroke-width:0.0578125" />
        <path
           sodipodi:nodetypes="ccccccccc"
           style="fill:#71a4d7;fill-opacity:1;stroke-width:0.0578125"
           d="m 210.94882,22.232513 c -27.31033,-3.814228 -51.0626,-24.870431 -58.53494,-51.360902 -5.82822,-19.786744 -2.73251,-42.193787 8.69469,-59.383805 11.42503,19.097477 22.36874,38.578585 33.76812,57.733963 6.4801,9.624589 18.17848,15.161293 29.6629,14.250781 2.94689,0.792494 10.98286,-3.876995 10.56532,-1.559064 -7.88794,13.451945 -15.70476,26.948719 -23.68882,40.336059 l -0.46731,-0.01703 z"
           id="path8521"
           inkscape:connector-curvature="0" />
        <path
           sodipodi:nodetypes="ccccccccc"
           inkscape:connector-curvature="0"
           id="path8523"
           d="m 218.24496,23.042946 c 1.10271,-3.526103 3.83383,-6.906608 5.68274,-10.295019 9.25455,-16.349491 19.26146,-32.295556 28.2883,-48.759241 6.28541,-13.713902 1.68565,-31.332928 -10.74178,-40.008003 5.3259,-1.163593 13.88186,-0.167627 20.37051,-0.517335 9.1481,0.04582 18.30222,-0.103565 27.44631,0.09828 9.89337,23.41364 5.70546,51.792919 -10.05823,71.663927 -14.22974,18.466271 -37.71627,29.233652 -60.98785,27.817394 z"
           style="fill:#b2d0ea;fill-opacity:1;stroke-width:0.0578125" />
      </g>
    </g>
    <circle
       style="display:inline;opacity:1;fill:#f36525;fill-opacity:1;stroke:none;stroke-width:0;stroke-linecap:butt;stroke-linejoin:miter;stroke-miterlimit:4;stroke-dasharray:none;stroke-opacity:1;paint-order:stroke markers fill"
       id="path4796"
       cx="3.4792433"
       cy="74.451797"
       r="17.268011"
       transform="matrix(-0.9597301,0.28092371,0.28092371,0.9597301,0,0)" />
    <g
       style="display:inline"
       id="g4852"
       transform="matrix(0.07913441,-0.04568827,0.04568827,0.07913441,-19.531107,88.55984)">
      <path
         style="color:#000000;font-style:normal;font-variant:normal;font-weight:normal;font-stretch:normal;font-size:medium;line-height:normal;font-family:sans-serif;font-variant-ligatures:normal;font-variant-position:normal;font-variant-caps:normal;font-variant-numeric:normal;font-variant-alternates:normal;font-feature-settings:normal;text-indent:0;text-align:start;text-decoration:none;text-decoration-line:none;text-decoration-style:solid;text-decoration-color:#000000;letter-spacing:normal;word-spacing:normal;text-transform:none;writing-mode:lr-tb;direction:ltr;text-orientation:mixed;dominant-baseline:auto;baseline-shift:baseline;text-anchor:start;white-space:normal;shape-padding:0;clip-rule:nonzero;display:inline;overflow:visible;visibility:visible;opacity:1;isolation:auto;mix-blend-mode:normal;color-interpolation:sRGB;color-interpolation-filters:linearRGB;solid-color:#000000;solid-opacity:1;vector-effect:none;fill:#ffffff;fill-opacity:1;fill-rule:nonzero;stroke:none;stroke-width:35.87366486;stroke-linecap:butt;stroke-linejoin:miter;stroke-miterlimit:4;stroke-dasharray:none;stroke-dashoffset:0;stroke-opacity:1;color-rendering:auto;image-rendering:auto;shape-rendering:auto;text-rendering:auto;enable-background:accumulate"
         d="m 189.07617,79.470703 c -17.48658,0 -34.04396,4.146302 -48.74023,11.503906 l 17.92773,31.052731 c 9.36092,-4.28292 19.78594,-6.68359 30.8125,-6.68359 38.5876,0 69.92352,29.18934 73.31836,66.84375 h 35.97266 c -1.72056,-27.79737 -13.91114,-52.85977 -32.66016,-71.26953 a 35.402061,35.402061 0 0 1 -30.13672,-2.4668 35.402061,35.402061 0 0 1 -17.2207,-24.98242 c -9.32606,-2.601215 -19.14279,-3.998047 -29.27344,-3.998047 z M 128.5918,97.798828 C 106.44252,112.56379 89.918206,135.16537 83.058594,161.57422 a 35.402061,35.402061 0 0 1 13.03125,27.40625 35.402061,35.402061 0 0 1 -13.029297,27.41015 c 6.859847,26.40704 23.383703,49.00588 45.531253,63.76954 l 17.89843,-31.00196 c -18.8213,-13.29512 -31.04882,-35.21304 -31.04882,-60.17773 0,-24.9647 12.22752,-46.884 31.04882,-60.17969 z m 133.80273,97.974612 c -3.39484,37.65421 -34.73076,66.84179 -73.31836,66.84179 -11.02603,0 -21.44997,-2.40126 -30.81055,-6.68359 l -17.92968,31.05469 c 14.69588,7.35689 31.25393,11.50195 48.74023,11.50195 10.13149,0 19.94864,-1.39846 29.27539,-4 a 35.402061,35.402061 0 0 1 17.21875,-24.97656 35.402061,35.402061 0 0 1 30.13086,-2.46289 c 18.75272,-18.40991 30.94536,-43.4748 32.66602,-71.27539 z"
         transform="translate(250.39454,-137.80566)"
         id="circle4823"
         inkscape:connector-curvature="0" />
      <circle
         style="fill:#ffffff;stroke-width:4.19575024"
         cx="311.08154"
         cy="51.175346"
         r="25.205759"
         id="circle4829" />
      <circle
         id="circle4882"
         r="25.205759"
         cy="-406.18121"
         cx="-303.80652"
         style="fill:#ffffff;stroke-width:4.19575024"
         transform="rotate(120)" />
      <circle
         id="circle4874"
         r="25.205759"
         cy="355.00577"
         cx="-392.44489"
         style="fill:#ffffff;stroke-width:4.19575024"
         transform="rotate(-120)" />
    </g>
  </g>
</svg>
